{
  "source": "C:\\Users\\Peter\\Desktop\\stuff\\MIUN\\quantitative_research\\video_compression\\videos\\BVI-HD\\BVI-HD_CDVL_videos\\ORIG\\BricksLeaves_1920x1080_60fps.mp4",
  "output": "C:\\Users\\Peter\\Desktop\\stuff\\MIUN\\quantitative_research\\video_compression\\compressed_videos\\BVI-HD\\av1\\4\\BricksLeaves_1920x1080_60fps_av1.mkv",
  "codec": "av1",
  "ok": "Input #0, mov,mp4,m4a,3gp,3g2,mj2, from 'C:\\Users\\Peter\\Desktop\\stuff\\MIUN\\quantitative_research\\video_compression\\videos\\BVI-HD\\BVI-HD_CDVL_videos\\ORIG\\BricksLeaves_1920x1080_60fps.mp4':\n  Metadata:\n    major_brand     : isom\n    minor_version   : 512\n    compatible_brands: isomiso2avc1mp41\n    encoder         : Lavf54.28.101\n  Duration: 00:00:05.00, start: 0.000000, bitrate: 524627 kb/s\n  Stream #0:0[0x1](und): Video: h264 (High 4:4:4 Predictive) (avc1 / 0x31637661), yuv420p(progressive), 1920x1080, 524622 kb/s, 60 fps, 60 tbr, 60 tbn (default)\n    Metadata:\n      handler_name    : VideoHandler\n      vendor_id       : [0][0][0][0]\n[out#0/matroska @ 00000184285590c0] Codec AVOption b:a (set bitrate (in bits/s)) has not been used for any stream. The most likely reason is either wrong type (e.g. a video option with no video streams) or that it is a private option of some decoder which was not actually used for any stream.\nStream mapping:\n  Stream #0:0 -> #0:0 (h264 (native) -> av1 (libsvtav1))\nPress [q] to stop, [?] for help\nSvt[info]: -------------------------------------------\nSvt[info]: SVT [version]:\tSVT-AV1 Encoder Lib v3.1.0-19-g6ecfe8ec\nSvt[info]: SVT [build]  :\tGCC 15.2.0\t 64 bit\nSvt[info]: LIB Build date: Aug 17 2025 11:37:13\nSvt[info]: -------------------------------------------\nSvt[info]: Level of Parallelism: 5\nSvt[info]: Number of PPCS 93\nSvt[info]: [asm level on system : up to avx2]\nSvt[info]: [asm level selected : up to avx2]\nSvt[info]: -------------------------------------------\nSvt[info]: SVT [config]: main profile\ttier (auto)\tlevel (auto)\nSvt[info]: SVT [config]: width / height / fps numerator / fps denominator \t\t: 1920 / 1080 / 60 / 1\nSvt[info]: SVT [config]: bit-depth / color format \t\t\t\t\t: 8 / YUV420\nSvt[info]: SVT [config]: preset / tune / pred struct \t\t\t\t\t: 4 / PSNR / random access\nSvt[info]: SVT [config]: gop size / mini-gop size / key-frame type \t\t\t: 321 / 16 / key frame\nSvt[info]: SVT [config]: BRC mode / target bitrate (kbps)\t\t\t\t: VBR / 4000 \nSvt[info]: SVT [config]: AQ mode / Variance Boost \t\t\t\t\t: 2 / 0\nSvt[info]: SVT [config]: sharpness / luminance-based QP bias \t\t\t\t: 0 / 0\nSvt[info]: SVT [config]: QP scale compress strength \t\t\t\t\t: 0\nSvt[info]: -------------------------------------------\nOutput #0, matroska, to 'C:\\Users\\Peter\\Desktop\\stuff\\MIUN\\quantitative_research\\video_compression\\compressed_videos\\BVI-HD\\av1\\4\\BricksLeaves_1920x1080_60fps_av1.mkv':\n  Metadata:\n    major_brand     : isom\n    minor_version   : 512\n    compatible_brands: isomiso2avc1mp41\n    encoder         : Lavf62.3.100\n  Stream #0:0(und): Video: av1 (AV01 / 0x31305641), yuv420p(tv, progressive), 1920x1080, q=2-31, 4000 kb/s, 60 fps, 1k tbn (default)\n    Metadata:\n      encoder         : Lavc62.11.100 libsvtav1\n      handler_name    : VideoHandler\n      vendor_id       : [0][0][0][0]\n    Side data:\n      cpb: bitrate max/min/avg: 0/0/4000000 buffer size: 4000000 vbv_delay: N/A\nframe=    0 fps=0.0 q=0.0 size=       0KiB time=N/A bitrate=N/A speed=N/A elapsed=0:00:01.07    \nframe=    0 fps=0.0 q=0.0 size=       0KiB time=N/A bitrate=N/A speed=N/A elapsed=0:00:01.72    \nframe=    0 fps=0.0 q=0.0 size=       0KiB time=N/A bitrate=N/A speed=N/A elapsed=0:00:02.26    \nframe=    0 fps=0.0 q=0.0 size=       0KiB time=N/A bitrate=N/A speed=N/A elapsed=0:00:02.92    \nframe=    0 fps=0.0 q=0.0 size=       0KiB time=N/A bitrate=N/A speed=N/A elapsed=0:00:03.52    \nframe=    0 fps=0.0 q=0.0 size=       0KiB time=N/A bitrate=N/A speed=N/A elapsed=0:00:04.02    \nframe=    0 fps=0.0 q=0.0 size=       0KiB time=N/A bitrate=N/A speed=N/A elapsed=0:00:04.56    \nframe=    0 fps=0.0 q=0.0 size=       0KiB time=N/A bitrate=N/A speed=N/A elapsed=0:00:05.12    \nframe=    0 fps=0.0 q=0.0 size=       0KiB time=N/A bitrate=N/A speed=N/A elapsed=0:00:05.68    \nframe=    0 fps=0.0 q=0.0 size=       0KiB time=N/A bitrate=N/A speed=N/A elapsed=0:00:06.21    \nframe=    0 fps=0.0 q=0.0 size=       0KiB time=N/A bitrate=N/A speed=N/A elapsed=0:00:06.73    \nframe=    1 fps=0.1 q=10.0 size=       1KiB time=00:00:00.00 bitrate=N/A speed=   0x elapsed=0:00:07.31    \nframe=    1 fps=0.1 q=10.0 size=       1KiB time=00:00:00.00 bitrate=N/A speed=   0x elapsed=0:00:07.85    \nframe=    3 fps=0.4 q=43.0 size=       1KiB time=00:00:00.03 bitrate= 170.9kbits/s speed=0.00398x elapsed=0:00:08.38    \nframe=    8 fps=0.9 q=45.0 size=       1KiB time=00:00:00.11 bitrate=  48.8kbits/s speed=0.0131x elapsed=0:00:08.92    \nframe=   11 fps=1.2 q=42.0 size=       1KiB time=00:00:00.16 bitrate=  34.2kbits/s speed=0.0176x elapsed=0:00:09.46    \nframe=   17 fps=1.7 q=21.0 size=       1KiB time=00:00:00.26 bitrate=  21.4kbits/s speed=0.0267x elapsed=0:00:09.99    \nframe=   22 fps=2.1 q=45.0 size=       1KiB time=00:00:00.33 bitrate=  17.1kbits/s speed=0.0316x elapsed=0:00:10.54    \nframe=   23 fps=2.1 q=44.0 size=       1KiB time=00:00:00.36 bitrate=  15.5kbits/s speed=0.0331x elapsed=0:00:11.08    \nframe=   27 fps=2.3 q=43.0 size=       1KiB time=00:00:00.43 bitrate=  13.1kbits/s speed=0.0373x elapsed=0:00:11.60    \nframe=   32 fps=2.6 q=44.0 size=       1KiB time=00:00:00.51 bitrate=  11.0kbits/s speed=0.0426x elapsed=0:00:12.12    \nframe=   36 fps=2.8 q=46.0 size=       1KiB time=00:00:00.58 bitrate=   9.8kbits/s speed=0.0461x elapsed=0:00:12.64    \nframe=   39 fps=3.0 q=45.0 size=       1KiB time=00:00:00.63 bitrate=   9.0kbits/s speed=0.048x elapsed=0:00:13.18    \nframe=   43 fps=3.1 q=43.0 size=       1KiB time=00:00:00.70 bitrate=   8.1kbits/s speed=0.0508x elapsed=0:00:13.77    \nframe=   49 fps=3.4 q=32.0 size=       1KiB time=00:00:00.80 bitrate=   7.1kbits/s speed=0.056x elapsed=0:00:14.29    \nframe=   53 fps=3.6 q=43.0 size=       1KiB time=00:00:00.86 bitrate=   6.6kbits/s speed=0.0584x elapsed=0:00:14.85    \nframe=   55 fps=3.6 q=41.0 size=       1KiB time=00:00:00.90 bitrate=   6.3kbits/s speed=0.0585x elapsed=0:00:15.39    \nframe=   59 fps=3.7 q=43.0 size=       1KiB time=00:00:00.96 bitrate=   5.9kbits/s speed=0.0606x elapsed=0:00:15.95    \nframe=   64 fps=3.9 q=46.0 size=       1KiB time=00:00:01.05 bitrate=   5.4kbits/s speed=0.0637x elapsed=0:00:16.48    \nframe=   67 fps=3.9 q=44.0 size=       1KiB time=00:00:01.10 bitrate=   5.2kbits/s speed=0.0646x elapsed=0:00:17.03    \nframe=   70 fps=4.0 q=46.0 size=       1KiB time=00:00:01.15 bitrate=   5.0kbits/s speed=0.0655x elapsed=0:00:17.56    \nframe=   73 fps=4.0 q=38.0 size=       1KiB time=00:00:01.20 bitrate=   4.7kbits/s speed=0.0662x elapsed=0:00:18.13    \nframe=   76 fps=4.1 q=46.0 size=       1KiB time=00:00:01.25 bitrate=   4.6kbits/s speed=0.067x elapsed=0:00:18.66    \nframe=   81 fps=4.2 q=30.0 size=       1KiB time=00:00:01.33 bitrate=   4.3kbits/s speed=0.0695x elapsed=0:00:19.19    \nframe=   86 fps=4.4 q=46.0 size=       1KiB time=00:00:01.40 bitrate=   4.1kbits/s speed=0.071x elapsed=0:00:19.72    \nframe=   89 fps=4.4 q=39.0 size=       1KiB time=00:00:01.45 bitrate=   3.9kbits/s speed=0.0714x elapsed=0:00:20.30    \nframe=   92 fps=4.4 q=46.0 size=       1KiB time=00:00:01.51 bitrate=   3.8kbits/s speed=0.0727x elapsed=0:00:20.87    \nframe=   98 fps=4.6 q=46.0 size=       1KiB time=00:00:01.61 bitrate=   3.5kbits/s speed=0.0754x elapsed=0:00:21.45    \nframe=  102 fps=4.6 q=46.0 size=       1KiB time=00:00:01.68 bitrate=   3.4kbits/s speed=0.0764x elapsed=0:00:22.01    \nframe=  104 fps=4.6 q=46.0 size=       1KiB time=00:00:01.71 bitrate=   3.3kbits/s speed=0.0761x elapsed=0:00:22.54    \nframe=  108 fps=4.7 q=46.0 size=       1KiB time=00:00:01.78 bitrate=   3.2kbits/s speed=0.0772x elapsed=0:00:23.10    \nframe=  114 fps=4.8 q=46.0 size=       1KiB time=00:00:01.88 bitrate=   3.0kbits/s speed=0.0795x elapsed=0:00:23.68    \nframe=  118 fps=4.9 q=46.0 size=       1KiB time=00:00:01.95 bitrate=   2.9kbits/s speed=0.0806x elapsed=0:00:24.19    \nframe=  122 fps=4.9 q=46.0 size=       1KiB time=00:00:02.01 bitrate=   2.8kbits/s speed=0.0815x elapsed=0:00:24.73    \nframe=  124 fps=4.9 q=46.0 size=       1KiB time=00:00:02.05 bitrate=   2.8kbits/s speed=0.0811x elapsed=0:00:25.27    \nframe=  130 fps=5.0 q=46.0 size=       1KiB time=00:00:02.15 bitrate=   2.6kbits/s speed=0.0831x elapsed=0:00:25.86    \nframe=  134 fps=5.1 q=46.0 size=       1KiB time=00:00:02.20 bitrate=   2.6kbits/s speed=0.0832x elapsed=0:00:26.43    \nframe=  135 fps=5.0 q=41.0 size=       1KiB time=00:00:02.23 bitrate=   2.6kbits/s speed=0.0825x elapsed=0:00:27.06    \nframe=  138 fps=5.0 q=46.0 size=       1KiB time=00:00:02.28 bitrate=   2.5kbits/s speed=0.0825x elapsed=0:00:27.67    \nframe=  140 fps=4.9 q=46.0 size=       1KiB time=00:00:02.31 bitrate=   2.5kbits/s speed=0.0818x elapsed=0:00:28.32    \nframe=  145 fps=5.0 q=29.0 size=       1KiB time=00:00:02.40 bitrate=   2.4kbits/s speed=0.083x elapsed=0:00:28.91    \nframe=  148 fps=5.0 q=46.0 size=       1KiB time=00:00:02.43 bitrate=   2.3kbits/s speed=0.0825x elapsed=0:00:29.49    \nframe=  150 fps=5.0 q=46.0 size=       1KiB time=00:00:02.48 bitrate=   2.3kbits/s speed=0.0826x elapsed=0:00:30.07    \nframe=  152 fps=4.9 q=46.0 size=       1KiB time=00:00:02.50 bitrate=   2.3kbits/s speed=0.0814x elapsed=0:00:30.71    \nframe=  155 fps=4.9 q=43.0 size=       1KiB time=00:00:02.56 bitrate=   2.2kbits/s speed=0.0818x elapsed=0:00:31.36    \nframe=  158 fps=4.9 q=46.0 size=       1KiB time=00:00:02.60 bitrate=   2.2kbits/s speed=0.0813x elapsed=0:00:31.99    \nframe=  163 fps=5.0 q=45.0 size=       1KiB time=00:00:02.70 bitrate=   2.1kbits/s speed=0.0828x elapsed=0:00:32.61    \nframe=  166 fps=5.0 q=46.0 size=       1KiB time=00:00:02.75 bitrate=   2.1kbits/s speed=0.083x elapsed=0:00:33.14    \nframe=  167 fps=5.0 q=40.0 size=       1KiB time=00:00:02.76 bitrate=   2.1kbits/s speed=0.0822x elapsed=0:00:33.66    \nframe=  171 fps=5.0 q=43.0 size=       1KiB time=00:00:02.83 bitrate=   2.0kbits/s speed=0.0828x elapsed=0:00:34.22    \nframe=  176 fps=5.1 q=47.0 size=       1KiB time=00:00:02.91 bitrate=   2.0kbits/s speed=0.0838x elapsed=0:00:34.80    \nframe=  181 fps=5.1 q=43.0 size=       1KiB time=00:00:03.00 bitrate=   1.9kbits/s speed=0.0849x elapsed=0:00:35.33    \nframe=  184 fps=5.1 q=47.0 size=       1KiB time=00:00:03.05 bitrate=   1.9kbits/s speed=0.0849x elapsed=0:00:35.91    \nframe=  188 fps=5.2 q=50.0 size=       1KiB time=00:00:03.10 bitrate=   1.8kbits/s speed=0.0851x elapsed=0:00:36.42    \nframe=  194 fps=5.2 q=50.0 size=       1KiB time=00:00:03.21 bitrate=   1.8kbits/s speed=0.087x elapsed=0:00:36.95    \nframe=  199 fps=5.3 q=44.0 size=       1KiB time=00:00:03.30 bitrate=   1.7kbits/s speed=0.088x elapsed=0:00:37.48    \nframe=  205 fps=5.4 q=43.0 size=       1KiB time=00:00:03.40 bitrate=   1.7kbits/s speed=0.0894x elapsed=0:00:38.01    \nframe=  213 fps=5.5 q=48.0 size=       1KiB time=00:00:03.53 bitrate=   1.6kbits/s speed=0.0917x elapsed=0:00:38.52    \nframe=  219 fps=5.6 q=51.0 size=       1KiB time=00:00:03.63 bitrate=   1.6kbits/s speed=0.093x elapsed=0:00:39.05    \nframe=  229 fps=5.8 q=52.0 size=       1KiB time=00:00:03.80 bitrate=   1.5kbits/s speed=0.096x elapsed=0:00:39.58    \nframe=  233 fps=5.8 q=47.0 size=       1KiB time=00:00:03.86 bitrate=   1.5kbits/s speed=0.0964x elapsed=0:00:40.10    \nframe=  241 fps=5.9 q=40.0 size=       1KiB time=00:00:04.00 bitrate=   1.4kbits/s speed=0.0984x elapsed=0:00:40.64    \nframe=  247 fps=6.0 q=58.0 size=       1KiB time=00:00:04.10 bitrate=   1.4kbits/s speed=0.0996x elapsed=0:00:41.16    \nframe=  251 fps=6.0 q=58.0 size=       1KiB time=00:00:04.16 bitrate=   1.4kbits/s speed=0.0999x elapsed=0:00:41.70    \nframe=  257 fps=6.1 q=46.0 size=       1KiB time=00:00:04.26 bitrate=   1.3kbits/s speed=0.101x elapsed=0:00:42.22    \nframe=  263 fps=6.2 q=58.0 size=       1KiB time=00:00:04.36 bitrate=   1.3kbits/s speed=0.102x elapsed=0:00:42.75    \nframe=  267 fps=6.2 q=59.0 size=       1KiB time=00:00:04.43 bitrate=   1.3kbits/s speed=0.102x elapsed=0:00:43.27    \nframe=  273 fps=6.2 q=51.0 size=       1KiB time=00:00:04.53 bitrate=   1.3kbits/s speed=0.104x elapsed=0:00:43.77    \nframe=  279 fps=6.3 q=59.0 size=       1KiB time=00:00:04.63 bitrate=   1.2kbits/s speed=0.105x elapsed=0:00:44.29    \nframe=  281 fps=6.3 q=58.0 size=       1KiB time=00:00:04.66 bitrate=   1.2kbits/s speed=0.104x elapsed=0:00:44.82    \nframe=  293 fps=6.5 q=58.0 size=       1KiB time=00:00:04.86 bitrate=   1.2kbits/s speed=0.107x elapsed=0:00:45.38    \n[out#0/matroska @ 00000184285590c0] video:2445KiB audio:0KiB subtitle:0KiB other streams:0KiB global headers:0KiB muxing overhead: 0.085552%\nframe=  300 fps=6.6 q=59.0 Lsize=    2447KiB time=00:00:04.98 bitrate=4022.8kbits/s speed=0.109x elapsed=0:00:45.53    \n",
  "seconds": 46.07791709899902,
  "probe_out": {}
}